<svg id="Vrstva_1" data-name="Vrstva 1" xmlns="http://www.w3.org/2000/svg" viewBox="0 0 104.19 104.19"  width="32" height="32">
  <defs>
    <style>
      .cls-1 {
        fill: #60a5fa;
      }

      .cls-2 {
        fill: #3b82f6;
      }

      .cls-3 {
        fill: #1e40af;
      }

      .cls-4 {
        fill: #1d4ed8;
      }
    </style>
  </defs>
  <path class="cls-2" d="M.35.35h69v59c0,5.52-4.48,10-10,10H.35V.35H.35Z" transform="translate(69.69 69.69) rotate(180)"/>
  <polygon class="cls-3" points="69.35 .35 69.35 69.35 .35 69.35 69.35 .35"/>
  <path class="cls-2" d="M44.85,34.85h59v69H34.85v-59c0-5.52,4.48-10,10-10Z" transform="translate(138.7 138.7) rotate(180)"/>
  <polyline class="cls-1" points="69.35 34.85 34.85 34.85 69.35 .35 69.35 34.85"/>
  <path class="cls-4" d="M103.85,34.85v59c0,5.52-4.48,10-10,10h-59S103.85,34.85,103.85,34.85Z"/>
</svg>