<svg id="Vrstva_1" data-name="Vrstva 1" xmlns="http://www.w3.org/2000/svg" viewBox="0 0 127.56 127.56" width="32" height="32">
<defs>
<style>
  .cls-x {
    fill: #f43f5e;
  }
</style>
</defs>
  <path class="cls-x" d="M92.01,92.61c-2.04,7.74-6.08,15.02-12.13,21.07-4.44,4.46-9.6,7.83-15.11,10.12-8.38,3.5-17.57,4.42-26.4,2.82l-.02-.02c-7.5-4.93-13.49-11.96-17.15-20.27,5.75,2.53,12.13,3.93,18.83,3.93,8.89,0,17.15-2.49,24.24-6.76,8.21-4.99,14.77-12.45,18.65-21.36,1.4-3.17,2.44-6.5,3.08-10,.55-2.8.82-5.72.82-8.69s-.25-5.64-.76-8.36c1.77,2.69,3.22,5.55,4.37,8.49,3.62,9.29,4.13,19.47,1.6,29.01Z" />
  <path class="cls-x" d="M126.75,88.51l-.02.02c-4.73,7.28-11.47,13.15-19.43,16.82,2.29-5.52,3.53-11.54,3.53-17.84,0-8.54-2.28-16.55-6.32-23.45-4.95-8.56-12.53-15.39-21.65-19.39-3.28-1.44-6.74-2.51-10.36-3.15-2.73-.53-5.55-.78-8.45-.78-3.68,0-7.25.42-10.69,1.24,2.99-2.19,6.17-3.95,9.49-5.34,9.27-3.84,19.5-4.55,29.12-2.22,8.01,2,15.62,6.1,21.91,12.38,5.28,5.28,9.01,11.49,11.23,18.08,2.57,7.63,3.11,15.79,1.64,23.64Z" />
  <path class="cls-x" d="M73.62,84.92c-3.06,2.17-6.32,3.9-9.71,5.21-9.01,3.55-18.96,4.19-28.28,1.91-8.03-1.98-15.64-6.06-21.92-12.35-4.73-4.75-8.23-10.25-10.52-16.1C0,55.41-.8,46.5.8,37.96c5.13-7.88,12.58-14.11,21.38-17.74-2.53,5.72-3.91,12.05-3.91,18.72,0,8.54,2.29,16.55,6.34,23.42,4.57,7.96,11.44,14.38,19.72,18.48,2.97,1.47,6.1,2.64,9.4,3.46,3.62.91,7.43,1.4,11.34,1.4,2.93,0,5.77-.27,8.56-.78Z" />
  <path class="cls-x" d="M108.32,21.03c-6.23-3.1-13.27-4.84-20.74-4.84-8.89,0-17.17,2.49-24.24,6.74-8.45,5.13-15.19,12.89-19.03,22.14-1.2,2.93-2.13,6.03-2.73,9.23v.02c-.53,2.8-.8,5.7-.8,8.67,0,2.48.2,4.92.56,7.3-1.57-2.68-2.82-5.48-3.79-8.36-2.95-8.76-3.26-18.15-.89-27,2-7.72,6.06-15,12.11-21.05,4.7-4.72,10.16-8.21,15.99-10.47,9.09-3.57,19.06-4.17,28.46-1.82,6.63,4.99,11.87,11.69,15.1,19.45Z" />
</svg>