<svg id="Vrstva_1" data-name="Vrstva 1" xmlns="http://www.w3.org/2000/svg" viewBox="0 0 160.01 160.01" width="32" height="32">
  <defs>
    <style>
      .cls-1 {
        fill: #e4101a;
      }

      .cls-2 {
        fill: #fff;
      }
    </style>
  </defs>
  <circle class="cls-1" cx="80.01" cy="80.01" r="80.01"/>
  <path class="cls-2" d="M104.89,46.93v3.06l-15.62,1.53v-3.37c0-7.35-2.76-10.72-8.42-10.72-4.75,0-8.12,2.6-8.12,8.73v2.3c0,5.97,3.06,10.87,13.63,20.52,14.39,13.32,19.29,22.05,19.29,34.46v5.21c0,15.77-9.95,24.04-24.81,24.04s-25.11-8.73-25.11-24.5v-7.04l15.62-1.53v7.35c0,7.2,3.37,10.72,9.19,10.72,4.9,0,8.88-2.6,8.88-10.26v-3.37c0-6.74-3.06-11.64-13.63-21.29-14.4-13.32-19.3-22.05-19.3-33.69v-2.6c0-15.77,9.19-24.04,24.2-24.04s24.2,8.73,24.2,24.5Z"/>
  <polygon class="cls-1" points="62.1 82.22 80.52 77.53 85.66 59.23 91.38 76.91 95.54 92.57 79.58 87.36 62.1 82.22"/>
  <polygon class="cls-2" points="60.11 79.45 78.52 74.76 83.67 56.46 87.41 72.8 91.8 88.36 75.96 83.88 60.11 79.45"/>
  <polygon class="cls-2" points="80.48 112.9 64 103.43 47.56 112.97 56.26 98.64 63.97 84.42 72.2 98.68 80.48 112.9"/>
</svg>